HIERARCHY
ROOT joint_Root
{
	OFFSET 0.0 0.0 0.0
	CHANNELS 6 Xposition Yposition Zposition Zrotation Xrotation Yrotation 
	JOINT Hips
	{
		OFFSET 4.5925 91.4895 -427.239
		CHANNELS 6 Xposition Yposition Zposition Zrotation Xrotation Yrotation 
		JOINT Spine
		{
			OFFSET 15.7357 0.0 0.0
			CHANNELS 6 Xposition Yposition Zposition Zrotation Xrotation Yrotation 
			JOINT Chest
			{
				OFFSET 8.98455 -0.406207 0.0
				CHANNELS 6 Xposition Yposition Zposition Zrotation Xrotation Yrotation 
				JOINT Neck
				{
					OFFSET 16.3773 0.0 0.0
					CHANNELS 6 Xposition Yposition Zposition Zrotation Xrotation Yrotation 
					JOINT Head
					{
						OFFSET 6.45672 0.0 0.0
						CHANNELS 6 Xposition Yposition Zposition Zrotation Xrotation Yrotation 
						End Site
						{
							OFFSET 0.0 0.0 0.0
						}
					}
				}
				JOINT Shoulder_L
				{
					OFFSET 12.9942 -0.242716 4.98039
					CHANNELS 6 Xposition Yposition Zposition Zrotation Xrotation Yrotation 
					JOINT UpperArm_L
					{
						OFFSET 5.34809 0.0 0.0
						CHANNELS 6 Xposition Yposition Zposition Zrotation Xrotation Yrotation 
						JOINT LowerArm_L
						{
							OFFSET 24.3286 1.87007e-05 0.0
							CHANNELS 6 Xposition Yposition Zposition Zrotation Xrotation Yrotation 
							JOINT Hand_L
							{
								OFFSET 22.2916 0.0 0.0
								CHANNELS 6 Xposition Yposition Zposition Zrotation Xrotation Yrotation 
								End Site
								{
									OFFSET 0.0 0.0 0.0
								}
							}
						}
					}
				}
				JOINT Shoulder_R
				{
					OFFSET 12.9945 -0.242716 -4.98039
					CHANNELS 6 Xposition Yposition Zposition Zrotation Xrotation Yrotation 
					JOINT UpperArm_R
					{
						OFFSET -5.34813 0.0 0.0
						CHANNELS 6 Xposition Yposition Zposition Zrotation Xrotation Yrotation 
						JOINT LowerArm_R
						{
							OFFSET -24.3289 0.000322201 0.0
							CHANNELS 6 Xposition Yposition Zposition Zrotation Xrotation Yrotation 
							JOINT Hand_R
							{
								OFFSET -22.2915 -0.000108084 0.0
								CHANNELS 6 Xposition Yposition Zposition Zrotation Xrotation Yrotation 
								End Site
								{
									OFFSET 0.0 0.0 0.0
								}
							}
						}
					}
				}
			}
		}
		JOINT UpperLeg_L
		{
			OFFSET -2.19248 -6.46944 0.0
			CHANNELS 6 Xposition Yposition Zposition Zrotation Xrotation Yrotation 
			JOINT LowerLeg_L
			{
				OFFSET 39.0811 0.0 -1.23785e-05
				CHANNELS 6 Xposition Yposition Zposition Zrotation Xrotation Yrotation 
				JOINT Foot_L
				{
					OFFSET 40.9854 0.0 -1.26872e-05
					CHANNELS 6 Xposition Yposition Zposition Zrotation Xrotation Yrotation 
					JOINT Toes_L
					{
						OFFSET 11.7543 0.0 0.0
						CHANNELS 6 Xposition Yposition Zposition Zrotation Xrotation Yrotation 
						End Site
						{
							OFFSET 0.0 0.0 0.0
						}
					}
				}
			}
		}
		JOINT UpperLeg_R
		{
			OFFSET -2.19251 6.46944 0.0
			CHANNELS 6 Xposition Yposition Zposition Zrotation Xrotation Yrotation 
			JOINT LowerLeg_R
			{
				OFFSET -39.0811 -0.00228153 -0.0401928
				CHANNELS 6 Xposition Yposition Zposition Zrotation Xrotation Yrotation 
				JOINT Foot_R
				{
					OFFSET -40.9854 0.0 0.0
					CHANNELS 6 Xposition Yposition Zposition Zrotation Xrotation Yrotation 
					JOINT Toes_R
					{
						OFFSET -11.7543 0.0 0.0
						CHANNELS 6 Xposition Yposition Zposition Zrotation Xrotation Yrotation 
						End Site
						{
							OFFSET 0.0 0.0 0.0
						}
					}
				}
			}
		}
	}
}
MOTION
Frames:	9
Frame Time:	0.0333333
0.000000 0.000000 0.000000 0.000000 0.000000 -0.000000 -1.142630 82.297300 -2.916860 88.518700 -0.802630 9.792870 15.735700 0.000005 -0.000001 86.261700 80.613600 -86.001700 8.984550 -0.406207 -0.000000 10.971500 -1.207610 0.635826 16.377300 -0.000001 -0.000001 -4.636290 -2.524730 0.931262 6.456720 -0.000001 -0.000000 -4.956940 -1.379760 3.402060 12.994200 -0.242716 4.980390 -90.773100 3.009080 -75.582800 5.348090 -0.000007 -0.000001 -68.978900 13.085400 -17.900800 24.328600 0.000019 0.000005 7.651320 20.863200 -20.666700 22.291600 -0.000001 0.000005 12.825800 5.394820 -2.769320 12.994500 -0.242716 -4.980390 88.896100 7.168200 -81.221100 -5.348130 -0.000001 -0.000004 -62.280400 26.939700 -16.887500 -24.328900 0.000322 -0.000009 -1.000050 -3.209690 -17.296100 -22.291500 -0.000108 -0.000004 11.138800 5.521440 -7.419340 -2.192480 -6.469440 -0.000000 -173.185000 -12.111800 -18.998900 39.081100 -0.000007 -0.000012 -0.394073 0.203567 62.681400 40.985400 -0.000006 -0.000013 2.427600 7.334850 -83.781000 11.754300 -0.000000 0.000003 -0.000499 -0.003975 -16.722900 -2.192510 6.469440 -0.000001 177.182000 16.946900 162.167000 -39.081100 -0.002282 -0.040193 0.105700 -0.054217 62.126600 -40.985400 0.000008 0.000006 7.539360 5.211580 -84.819500 -11.754300 -0.000006 -0.000006 -0.411726 -0.503088 -16.348600
0.000000 0.000000 0.000000 0.000000 0.000000 -0.000000 -1.252770 84.056100 -2.000890 88.663300 0.324629 9.971180 15.735700 0.000005 -0.000001 85.352700 81.543400 -85.166000 8.984550 -0.406207 -0.000000 9.095780 -1.360860 0.481282 16.377300 -0.000001 -0.000001 -2.511230 -2.878470 0.758057 6.456720 -0.000001 -0.000000 -3.275020 -1.964310 3.648620 12.994200 -0.242716 4.980390 -90.442900 1.594290 -74.466000 5.348090 -0.000007 -0.000001 -62.863500 5.599270 -23.349100 24.328600 0.000019 0.000005 7.397530 19.819700 -20.953100 22.291600 -0.000001 0.000005 14.559200 5.381640 -2.352660 12.994500 -0.242716 -4.980390 88.900300 5.952790 -79.511000 -5.348130 -0.000001 -0.000004 -56.098200 19.043700 -18.555400 -24.328900 0.000322 -0.000009 -0.932334 -3.496550 -14.926300 -22.291500 -0.000108 -0.000004 10.358600 5.508650 -6.889500 -2.192480 -6.469440 -0.000000 -173.220000 -11.587200 -15.633800 39.081100 -0.000007 -0.000012 -0.352689 0.224989 57.466100 40.985400 -0.000006 -0.000013 2.326980 8.046460 -81.830500 11.754300 -0.000000 0.000003 -0.000515 -0.004083 -16.726600 -2.192510 6.469440 -0.000001 176.754000 17.420800 165.761000 -39.081100 -0.002282 -0.040193 0.092203 -0.057700 57.039900 -40.985400 0.000008 0.000006 6.987800 5.129840 -82.757300 -11.754300 -0.000006 -0.000006 -0.581952 -0.716619 -16.497700
0.000000 0.000000 0.000000 0.000000 0.000000 -0.000000 -1.265160 86.626100 -1.075740 89.118200 1.123210 9.391260 15.735700 0.000005 -0.000001 82.790900 82.855200 -82.838900 8.984550 -0.406207 -0.000000 6.412240 -1.787310 0.004239 16.377300 -0.000001 -0.000001 0.265920 -3.223970 0.765215 6.456720 -0.000001 -0.000000 -1.445880 -2.262330 3.821130 12.994200 -0.242716 4.980390 -89.898500 -0.334560 -73.162100 5.348090 -0.000007 -0.000001 -56.666800 -4.682240 -30.283800 24.328600 0.000019 0.000005 6.863250 18.609000 -20.665300 22.291600 -0.000001 0.000005 14.677500 5.361740 -1.732180 12.994500 -0.242716 -4.980390 89.175700 3.871370 -77.965800 -5.348130 -0.000001 -0.000004 -49.107100 7.799710 -22.235800 -24.328900 0.000322 -0.000009 -1.034620 -4.561400 -12.783100 -22.291500 -0.000108 -0.000004 10.204000 5.487480 -6.033980 -2.192480 -6.469440 -0.000000 -173.903000 -10.960300 -11.383500 39.081100 -0.000007 -0.000012 -0.285697 0.248851 48.943800 40.985400 -0.000006 -0.000013 1.778770 8.257300 -78.185100 11.754300 -0.000000 0.000003 -0.000363 -0.003053 -16.690500 -2.192510 6.469440 -0.000001 176.444000 17.073500 169.894000 -39.081100 -0.002282 -0.040193 0.069076 -0.057315 48.953400 -40.985400 0.000008 0.000006 6.333860 4.689600 -78.978700 -11.754300 -0.000006 -0.000006 -0.508996 -0.625194 -16.920000
0.000000 0.000000 0.000000 0.000000 0.000000 -0.000000 -1.228440 89.068000 -0.161843 89.599400 1.370760 8.677940 15.735700 0.000005 -0.000001 79.132600 84.225400 -79.381400 8.984550 -0.406207 -0.000000 3.573650 -2.165640 -0.429602 16.377300 -0.000001 -0.000001 3.250400 -3.178420 0.814017 6.456720 -0.000001 -0.000000 0.306867 -2.128980 3.822700 12.994200 -0.242716 4.980390 -89.243700 -2.385950 -72.408600 5.348090 -0.000007 -0.000001 -50.308100 -16.086400 -37.909700 24.328600 0.000019 0.000005 6.113960 16.978200 -20.144700 22.291600 -0.000001 0.000005 15.422000 5.336240 -0.971670 12.994500 -0.242716 -4.980390 89.587200 1.701900 -76.352300 -5.348130 -0.000001 -0.000004 -41.366100 -5.201840 -28.853500 -24.328900 0.000322 -0.000009 -1.139640 -6.026560 -10.722300 -22.291500 -0.000108 -0.000004 10.143500 5.461760 -5.067280 -2.192480 -6.469440 -0.000000 -174.500000 -11.048300 -6.541170 39.081100 -0.000007 -0.000012 -0.218722 0.268100 39.208700 40.985400 -0.000006 -0.000013 1.227580 8.653040 -73.978600 11.754300 -0.000000 0.000003 -0.000220 -0.002003 -16.652900 -2.192510 6.469440 -0.000001 176.111000 16.679000 174.148000 -39.081100 -0.002282 -0.040193 0.044358 -0.048769 40.108800 -40.985400 0.000008 0.000006 5.642080 4.769540 -74.385900 -11.754300 -0.000006 -0.000006 -0.564635 -0.692551 -17.576900
0.000000 0.000000 0.000000 0.000000 0.000000 -0.000000 -1.161380 90.685300 0.263029 89.719300 1.568500 6.604610 15.735700 0.000005 -0.000001 71.978700 85.641300 -72.195000 8.984550 -0.406207 -0.000000 0.519745 -2.682370 -0.420135 16.377300 -0.000001 -0.000001 4.766420 -3.018950 0.775417 6.456720 -0.000001 -0.000000 1.287830 -1.853900 3.671200 12.994200 -0.242716 4.980390 -88.515600 -4.703860 -72.462500 5.348090 -0.000007 -0.000001 -45.463300 -29.409100 -44.705600 24.328600 0.000019 0.000005 5.171630 12.276100 -23.072200 22.291600 -0.000001 0.000005 15.537100 5.339070 -1.051880 12.994500 -0.242716 -4.980390 90.249800 -1.008650 -76.082800 -5.348130 -0.000001 -0.000004 -34.028100 -19.691400 -35.109800 -24.328900 0.000322 -0.000009 -1.882080 -8.429470 -12.615400 -22.291500 -0.000108 -0.000004 11.857300 5.465700 -5.208540 -2.192480 -6.469440 -0.000000 -174.990000 -11.688200 -4.503290 39.081100 -0.000007 -0.000012 -0.150547 0.245908 31.475600 40.985400 -0.000006 -0.000013 0.877141 9.320730 -70.352300 11.754300 -0.000000 0.000003 -0.000144 -0.001405 -16.631000 -2.192510 6.469440 -0.000001 176.239000 18.073800 175.831000 -39.081100 -0.002282 -0.040193 0.030099 -0.041199 33.047700 -40.985400 0.000008 0.000006 5.665430 6.227430 -70.739700 -11.754300 -0.000006 -0.000006 -0.512030 -0.629525 -18.065600
0.000000 0.000000 0.000000 0.000000 0.000000 -0.000000 -1.072290 91.538700 0.452870 89.708700 1.205830 4.778660 15.735700 0.000005 -0.000001 66.910300 86.604100 -66.994300 8.984550 -0.406207 -0.000000 -1.520680 -2.656140 -0.203323 16.377300 -0.000001 -0.000001 4.697250 -2.728760 0.834699 6.456720 -0.000001 -0.000000 0.902050 -1.973730 3.552320 12.994200 -0.242716 4.980390 -87.711500 -7.292110 -72.524000 5.348090 -0.000007 -0.000001 -40.380700 -41.915300 -49.996700 24.328600 0.000019 0.000005 3.164260 5.670310 -29.259700 22.291600 -0.000001 0.000005 16.358500 5.390270 -2.619870 12.994500 -0.242716 -4.980390 91.005700 -4.214250 -76.563000 -5.348130 -0.000001 -0.000004 -27.502600 -35.044300 -38.338300 -24.328900 0.000322 -0.000009 -5.377330 -13.717400 -21.622200 -22.291500 -0.000108 -0.000004 15.778200 5.508880 -6.853140 -2.192480 -6.469440 -0.000000 -175.269000 -12.839600 -3.713370 39.081100 -0.000007 -0.000012 -0.110820 0.221382 26.591900 40.985400 -0.000006 -0.000013 0.706393 10.037000 -68.054500 11.754300 -0.000000 0.000003 -0.000126 -0.001255 -16.625500 -2.192510 6.469440 -0.000001 176.263000 20.267000 176.622000 -39.081100 -0.002282 -0.040193 0.020872 -0.032823 28.154400 -40.985400 0.000008 0.000006 5.715660 9.065910 -68.837500 -11.754300 -0.000006 -0.000006 -0.340801 -0.427210 -17.934600
0.000000 0.000000 0.000000 0.000000 0.000000 -0.000000 -0.980084 91.930800 0.498774 89.632000 0.521113 3.463500 15.735700 0.000005 -0.000001 69.876600 87.125100 -69.808100 8.984550 -0.406207 -0.000000 -2.366620 -1.983620 0.096041 16.377300 -0.000001 -0.000001 3.573520 -2.618960 0.896010 6.456720 -0.000001 -0.000000 -0.116987 -2.342030 3.376590 12.994200 -0.242716 4.980390 -86.930100 -9.305640 -71.652700 5.348090 -0.000007 -0.000001 -33.385600 -52.572300 -53.316200 24.328600 0.000019 0.000005 4.698600 6.047600 -37.937800 22.291600 -0.000001 0.000005 20.189600 5.390080 -2.630730 12.994500 -0.242716 -4.980390 91.781900 -7.067780 -75.814200 -5.348130 -0.000001 -0.000004 -18.777900 -48.204500 -38.138000 -24.328900 0.000322 -0.000009 -8.102930 -11.661500 -35.180900 -22.291500 -0.000108 -0.000004 23.809200 5.578390 -9.939410 -2.192480 -6.469440 -0.000000 -175.407000 -14.242000 -3.672530 39.081100 -0.000007 -0.000012 -0.092249 0.206214 24.101100 40.985400 -0.000006 -0.000013 0.676170 10.641600 -66.874200 11.754300 -0.000000 0.000003 -0.000114 -0.001147 -16.621400 -2.192510 6.469440 -0.000001 176.263000 22.578800 176.866000 -39.081100 -0.002282 -0.040193 0.016415 -0.027827 25.215700 -40.985400 0.000008 0.000006 5.901880 12.155700 -68.074000 -11.754300 -0.000006 -0.000006 -0.001965 -0.028279 -17.723000
0.000000 0.000000 0.000000 0.000000 0.000000 -0.000000 -0.980159 92.129300 0.548038 89.539900 0.081340 2.763730 15.735700 0.000005 -0.000001 75.146600 87.489200 -74.892200 8.984550 -0.406207 -0.000000 -2.909560 -1.310460 0.475560 16.377300 -0.000001 -0.000001 3.062920 -2.579850 1.103800 6.456720 -0.000001 -0.000000 -0.485993 -2.416950 2.367820 12.994200 -0.242716 4.980390 -85.852900 -10.702400 -68.676000 5.348090 -0.000007 -0.000001 -35.282000 -60.076400 -63.102900 24.328600 0.000019 0.000005 5.719830 5.726220 -45.113400 22.291600 -0.000001 0.000005 22.316500 5.412120 -3.340060 12.994500 -0.242716 -4.980390 92.968700 -9.138940 -71.923700 -5.348130 -0.000001 -0.000004 -17.878700 -58.618100 -45.949700 -24.328900 0.000322 -0.000009 -9.795850 -10.012400 -44.794200 -22.291500 -0.000108 -0.000004 27.173000 5.618170 -12.524000 -2.192480 -6.469440 -0.000000 -175.508000 -14.295600 -3.628800 39.081100 -0.000007 -0.000012 -0.083755 0.199847 22.738400 40.985400 -0.000006 -0.000013 0.473892 10.295000 -66.242000 11.754300 -0.000000 0.000003 -0.000124 -0.001238 -16.624800 -2.192510 6.469440 -0.000001 176.436000 23.613000 177.064000 -39.081100 -0.002282 -0.040193 0.013642 -0.023748 23.502000 -40.985400 0.000008 0.000006 6.067990 13.621700 -67.672800 -11.754300 -0.000006 -0.000006 -0.001929 -0.027828 -17.704700
0.000000 0.000000 0.000000 0.000000 0.000000 -0.000000 -1.129870 92.227100 0.684166 89.367800 0.185931 2.289800 15.735700 0.000005 -0.000001 74.758100 87.728900 -74.401400 8.984550 -0.406207 -0.000000 -3.380130 -1.228190 0.677404 16.377300 -0.000001 -0.000001 3.254900 -2.693190 1.650210 6.456720 -0.000001 -0.000000 -0.345707 -2.183670 1.949490 12.994200 -0.242716 4.980390 -84.785000 -11.251400 -64.931400 5.348090 -0.000007 -0.000001 -50.182200 -62.823600 -85.142600 24.328600 0.000019 0.000005 5.067740 4.978740 -45.618400 22.291600 -0.000001 0.000005 21.932700 5.420390 -3.612610 12.994500 -0.242716 -4.980390 94.107400 -10.171300 -67.872200 -5.348130 -0.000001 -0.000004 -31.318000 -64.483400 -68.037700 -24.328900 0.000322 -0.000009 -9.350660 -10.276900 -42.699800 -22.291500 -0.000108 -0.000004 25.220900 5.607730 -11.817900 -2.192480 -6.469440 -0.000000 -175.380000 -13.774300 -3.704760 39.081100 -0.000007 -0.000012 -0.086761 0.214237 22.046800 40.985400 -0.000006 -0.000013 0.220955 9.946700 -65.949300 11.754300 -0.000000 0.000003 -0.000119 -0.001194 -16.623200 -2.192510 6.469440 -0.000001 176.937000 23.476700 177.165000 -39.081100 -0.002282 -0.040193 0.012213 -0.021499 22.480300 -40.985400 0.000008 0.000006 6.035760 13.363700 -67.377500 -11.754300 -0.000006 -0.000006 -0.001965 -0.028283 -17.723200
